<?xml version="1.0" standalone="no"?>
<!DOCTYPE svg PUBLIC "-//W3C//DTD SVG 20010904//EN"
 "http://www.w3.org/TR/2001/REC-SVG-20010904/DTD/svg10.dtd">
<svg version="1.0" xmlns="http://www.w3.org/2000/svg"
 width="512.000000pt" height="512.000000pt" viewBox="0 0 512.000000 512.000000"
 preserveAspectRatio="xMidYMid meet">
<metadata>
Created by potrace 1.14, written by Peter Selinger 2001-2017
</metadata>
<g transform="translate(0.000000,512.000000) scale(0.100000,-0.100000)"
fill="#000000" stroke="none">
<path d="M2434 4946 c-22 -12 -98 -53 -169 -90 -72 -38 -157 -83 -190 -101
-33 -18 -100 -54 -150 -80 -49 -26 -117 -62 -150 -80 -33 -17 -100 -54 -150
-80 -209 -111 -243 -129 -300 -160 -33 -18 -114 -61 -180 -95 -66 -34 -133
-70 -150 -80 -16 -10 -88 -48 -160 -86 -71 -37 -166 -87 -210 -111 -44 -23
-103 -55 -131 -69 l-51 -27 3 -71 c1 -39 5 -152 8 -251 10 -297 16 -452 21
-600 3 -77 8 -205 10 -285 2 -80 7 -217 10 -305 7 -173 10 -265 20 -590 4
-115 9 -212 11 -214 4 -4 83 -2 194 4 30 2 120 6 200 10 80 4 168 8 195 10 28
2 113 6 190 10 l140 7 143 84 142 83 -2 -226 c-3 -217 -4 -226 -23 -229 -11
-2 -54 -6 -95 -9 -75 -5 -142 -11 -255 -20 -33 -3 -98 -8 -145 -11 -47 -3 -96
-7 -110 -9 -14 -2 -50 -4 -80 -4 l-55 -1 25 -20 c14 -11 142 -99 285 -195 143
-97 328 -222 410 -279 83 -56 240 -163 350 -237 110 -75 270 -184 357 -242 86
-59 161 -107 168 -107 10 0 117 71 399 264 41 28 81 56 90 61 38 24 76 50 81
55 3 3 13 10 22 15 9 6 115 77 235 158 120 82 295 200 388 264 94 64 216 147
273 185 56 38 102 70 102 72 0 1 -6 3 -12 3 -19 1 -175 12 -238 17 -30 3 -93
7 -140 11 -47 3 -101 8 -120 10 -19 2 -75 7 -125 10 -139 9 -125 -18 -125 240
l0 224 143 -84 142 -83 135 -7 c139 -6 222 -10 395 -20 55 -2 154 -8 220 -11
66 -3 131 -7 145 -8 29 -1 26 -25 35 244 3 107 8 236 10 285 2 50 6 178 10
285 3 107 8 245 10 305 2 61 7 189 10 285 7 205 11 336 21 595 3 105 7 220 8
256 l2 66 -170 83 c-94 46 -353 174 -576 283 -223 110 -477 234 -565 277 -88
43 -216 105 -285 138 -68 34 -125 60 -126 59 -1 -1 29 -65 67 -142 111 -227
259 -536 259 -540 0 -3 -40 -28 -105 -65 -16 -9 -81 -47 -142 -84 -62 -36
-119 -69 -126 -72 -11 -4 -13 24 -12 153 l2 158 -165 325 c-91 179 -186 366
-212 417 l-47 92 -39 -23z"/>
</g>
</svg>
