<svg width="32" height="32" viewBox="0 0 32 32" fill="none" xmlns="http://www.w3.org/2000/svg">
<path d="M16 4C9.37 4 4 9.373 4 16C4 21.303 7.438 25.8 12.205 27.385C12.805 27.498 13.025 27.127 13.025 26.808C13.025 26.523 13.015 25.768 13.01 24.768C9.672 25.492 8.968 23.158 8.968 23.158C8.422 21.773 7.633 21.403 7.633 21.403C6.546 20.659 7.717 20.674 7.717 20.674C8.922 20.758 9.555 21.91 9.555 21.91C10.625 23.745 12.364 23.215 13.05 22.908C13.158 22.132 13.467 21.603 13.81 21.303C11.145 21.003 8.344 19.971 8.344 15.373C8.344 14.063 8.809 12.993 9.579 12.153C9.444 11.85 9.039 10.63 9.684 8.977C9.684 8.977 10.689 8.655 12.984 10.207C13.944 9.94 14.964 9.808 15.984 9.802C17.004 9.808 18.024 9.94 18.984 10.207C21.264 8.655 22.269 8.977 22.269 8.977C22.914 10.63 22.509 11.85 22.389 12.153C23.154 12.993 23.619 14.063 23.619 15.373C23.619 19.983 20.814 20.998 18.144 21.293C18.564 21.653 18.954 22.389 18.954 23.513C18.954 25.119 18.939 26.409 18.939 26.799C18.939 27.114 19.149 27.489 19.764 27.369C24.565 25.795 28 21.295 28 16C28 9.373 22.627 4 16 4Z" fill="white"/>
</svg>
