<svg width="32" height="32" viewBox="0 0 32 32" fill="none" xmlns="http://www.w3.org/2000/svg">
<path d="M7.13 5.33811C6.08 5.96011 4.02 8.32811 4 8.95011V9.98011C4 11.2831 5.22 12.4301 6.325 12.4301C7.655 12.4301 8.761 11.3281 8.761 10.0201C8.761 11.3281 9.831 12.4301 11.161 12.4301C12.489 12.4301 13.523 11.3281 13.523 10.0201C13.523 11.3281 14.66 12.4301 15.989 12.4301H16.013C17.343 12.4301 18.479 11.3281 18.479 10.0201C18.479 11.3281 19.513 12.4301 20.842 12.4301C22.172 12.4301 23.242 11.3281 23.242 10.0201C23.242 11.3281 24.348 12.4301 25.677 12.4301C26.78 12.4301 28 11.2821 28 9.98011V8.95011C27.98 8.33011 25.918 5.96011 24.87 5.33811C21.617 5.22411 19.362 5.20411 16 5.20511C12.638 5.20511 8.055 5.25811 7.13 5.33811ZM13.506 11.8151C13.3788 12.0366 13.2213 12.2392 13.038 12.4171C12.538 12.9071 11.848 13.2121 11.091 13.2121C10.362 13.2124 9.66196 12.927 9.141 12.4171C8.959 12.2391 8.821 12.0471 8.695 11.8271C8.568 12.0491 8.392 12.2391 8.209 12.4171C7.68792 12.9268 6.98793 13.2122 6.259 13.2121C6.167 13.2121 6.072 13.1871 5.995 13.1601C5.888 14.2731 5.843 15.3361 5.827 16.1101V16.1151L5.821 17.2821C5.841 19.6161 5.591 24.8461 6.851 26.1321C8.803 26.5861 12.396 26.7941 16.001 26.7951C19.606 26.7951 23.199 26.5851 25.151 26.1311C26.411 24.8471 26.161 19.6171 26.181 17.2831L26.175 16.1161V16.1121C26.159 15.3371 26.115 14.2741 26.007 13.1621C25.93 13.1881 25.835 13.2141 25.744 13.2141C25.0151 13.2142 24.3151 12.9288 23.794 12.4191C23.61 12.2411 23.434 12.0511 23.308 11.8291C23.181 12.0491 23.043 12.2411 22.861 12.4191C22.3399 12.9287 21.6398 13.2137 20.911 13.2131C20.151 13.2131 19.465 12.9101 18.963 12.4201C18.7797 12.2422 18.6222 12.0396 18.495 11.8181C18.3694 12.0393 18.2135 12.2419 18.032 12.4201C17.5108 12.9296 16.8108 13.2146 16.082 13.2141H15.922C15.1933 13.2149 14.4933 12.9302 13.972 12.4211C13.7901 12.243 13.6339 12.0404 13.508 11.8191L13.506 11.8151ZM11.502 14.4071C12.297 14.4091 13.002 14.4071 13.875 15.3601C14.562 15.2881 15.281 15.2521 16 15.2531C16.72 15.2531 17.438 15.2881 18.125 15.3601C18.998 14.4071 19.703 14.4101 20.497 14.4071C20.873 14.4071 22.373 14.4071 23.417 17.3411L24.54 21.3691C25.372 24.3641 24.274 24.4371 22.904 24.4391C20.874 24.3641 19.748 22.8891 19.748 21.4141C18.624 21.5981 17.312 21.6901 16 21.6911C14.688 21.6911 13.376 21.5981 12.252 21.4141C12.252 22.8891 11.127 24.3641 9.096 24.4401C7.726 24.4361 6.628 24.3631 7.46 21.3681L8.582 17.3411C9.627 14.4071 11.127 14.4071 11.502 14.4071ZM16 16.7141C15.998 16.7161 13.86 18.6781 13.477 19.3761L14.877 19.3201V20.5401C14.877 20.5961 15.437 20.5731 16 20.5471C16.562 20.5731 17.124 20.5971 17.124 20.5391V19.3191L18.524 19.3741C18.138 18.6771 16 16.7141 16 16.7141Z" fill="white"/>
</svg>
