<svg width="32" height="32" viewBox="0 0 32 32" fill="none" xmlns="http://www.w3.org/2000/svg">
<g clip-path="url(#clip0_1416_4359)">
<path d="M18.0534 16.0001C18.0605 18.4024 17.1138 20.7093 15.4214 22.4143C13.7289 24.1192 11.429 25.0828 9.02671 25.0934C6.62439 25.0828 4.32447 24.1192 2.63202 22.4143C0.939571 20.7093 -0.00704951 18.4024 3.9531e-05 16.0001C-0.00704951 13.5977 0.939571 11.2908 2.63202 9.58585C4.32447 7.8809 6.62439 6.91733 9.02671 6.90674C11.429 6.91733 13.7289 7.8809 15.4214 9.58585C17.1138 11.2908 18.0605 13.5977 18.0534 16.0001ZM27.9467 16.0001C27.9467 20.7201 25.9334 24.5601 23.44 24.5601C20.9467 24.5601 18.92 20.7201 18.92 16.0001C18.92 11.2801 20.9467 7.44007 23.44 7.44007C25.9334 7.44007 27.9467 11.2801 27.9467 16.0001ZM32 16.0001C32 20.2267 31.2934 23.6667 30.4134 23.6667C29.5334 23.6667 28.8267 20.2267 28.8267 16.0001C28.8267 11.7734 29.5334 8.33341 30.4134 8.33341C31.2934 8.33341 32 11.7734 32 16.0001Z" fill="white"/>
</g>
<defs>
<clipPath id="clip0_1416_4359">
<rect width="32" height="32" fill="white"/>
</clipPath>
</defs>
</svg>
