<svg width="32" height="32" viewBox="0 0 32 32" fill="none" xmlns="http://www.w3.org/2000/svg">
<path d="M21.5704 20.1771C20.642 20.1771 19.8529 19.8522 19.203 19.2023C18.5531 18.5524 18.2282 17.7633 18.2282 16.8349C18.2282 15.9065 18.5531 15.1174 19.203 14.4675C19.8529 13.8176 20.642 13.4927 21.5704 13.4927C22.4988 13.4927 23.288 13.8176 23.9378 14.4675C24.5877 15.1174 24.9127 15.9065 24.9127 16.8349C24.9127 17.7633 24.5877 18.5524 23.9378 19.2023C23.288 19.8522 22.4988 20.1771 21.5704 20.1771ZM21.5704 18.506C22.0532 18.506 22.4524 18.3435 22.7681 18.0186C23.0837 17.6937 23.2415 17.2991 23.2415 16.8349C23.2415 16.3521 23.0837 15.9529 22.7681 15.6373C22.4524 15.3216 22.0532 15.1638 21.5704 15.1638C21.1062 15.1638 20.7117 15.3216 20.3867 15.6373C20.0618 15.9529 19.8993 16.3521 19.8993 16.8349C19.8993 17.2991 20.0618 17.6937 20.3867 18.0186C20.7117 18.3435 21.1062 18.506 21.5704 18.506ZM14.886 27.9756V24.7448C14.886 24.3549 14.9788 23.9882 15.1645 23.6447C15.3502 23.3012 15.6101 23.0273 15.9444 22.823C16.4643 22.5074 17.0027 22.2335 17.5598 22.0014C18.1168 21.7693 18.6924 21.579 19.2866 21.4304L21.5704 24.3827L23.8543 21.4304C24.4485 21.579 25.0194 21.7693 25.5672 22.0014C26.1149 22.2335 26.6488 22.5074 27.1687 22.823C27.5029 23.0273 27.7675 23.3012 27.9624 23.6447C28.1574 23.9882 28.2549 24.3549 28.2549 24.7448V27.9756H14.886ZM16.5571 26.3045H20.9298L18.646 23.3522C18.2746 23.5008 17.9126 23.6632 17.5598 23.8396C17.207 24.016 16.8728 24.2063 16.5571 24.4106V26.3045ZM22.211 26.3045H26.5838V24.4106C26.2681 24.2063 25.9385 24.016 25.595 23.8396C25.2515 23.6632 24.8941 23.5008 24.5227 23.3522L22.211 26.3045ZM7.6445 26.026C7.1803 26.026 6.78573 25.8635 6.4608 25.5386C6.13586 25.2137 5.97339 24.8191 5.97339 24.3549V7.64377C5.97339 7.17957 6.13586 6.785 6.4608 6.46006C6.78573 6.13513 7.1803 5.97266 7.6445 5.97266H24.3556C24.8198 5.97266 25.2144 6.13513 25.5393 6.46006C25.8643 6.785 26.0267 7.17957 26.0267 7.64377V14.5232C25.8225 14.1518 25.5811 13.8083 25.3026 13.4927C25.0241 13.177 24.7084 12.8985 24.3556 12.6571V7.64377H7.6445V24.3549H13.2149V26.026H7.6445ZM10.4297 12.1001H19.9272C20.1871 12.0072 20.4564 11.9376 20.7349 11.8912C21.0134 11.8448 21.2919 11.8215 21.5704 11.8215V10.429H10.4297V12.1001ZM10.4297 16.8349H16.5571C16.5571 16.5564 16.5803 16.2732 16.6267 15.9854C16.6731 15.6976 16.7428 15.4237 16.8356 15.1638H10.4297V16.8349ZM10.4297 21.5697H14.8303C15.1459 21.3283 15.4802 21.1287 15.833 20.9709C16.1857 20.8131 16.5478 20.6599 16.9192 20.5113V19.8986H10.4297V21.5697ZM7.6445 24.3549V7.64377V12.6571V11.8215V24.3549Z" fill="white"/>
</svg>
