<svg width="32" height="32" viewBox="0 0 32 32" fill="none" xmlns="http://www.w3.org/2000/svg">
<path d="M29.4143 9.21691C29.2561 8.62106 28.9442 8.07723 28.5097 7.63988C28.0752 7.20253 27.5335 6.88701 26.9387 6.72491C24.7558 6.13574 16 6.13574 16 6.13574C16 6.13574 7.24417 6.13574 5.06017 6.72491C4.46564 6.88729 3.92418 7.20293 3.48992 7.64025C3.05567 8.07758 2.74386 8.62126 2.58567 9.21691C2 11.4149 2 15.9999 2 15.9999C2 15.9999 2 20.5849 2.58567 22.7829C2.74385 23.3788 3.0558 23.9226 3.49029 24.3599C3.92478 24.7973 4.46654 25.1128 5.06133 25.2749C7.24417 25.8641 16 25.8641 16 25.8641C16 25.8641 24.7558 25.8641 26.9398 25.2749C27.5347 25.1129 28.0765 24.7974 28.511 24.3601C28.9455 23.9227 29.2574 23.3788 29.4155 22.7829C30 20.5849 30 15.9999 30 15.9999C30 15.9999 30 11.4149 29.4143 9.21691ZM13.1358 20.1626V11.8372L20.4543 15.9999L13.1358 20.1626Z" fill="white"/>
</svg>
